<svg xmlns="http://www.w3.org/2000/svg" version="1.1" xmlns:xlink="http://www.w3.org/1999/xlink" width="512" height="512" x="0" y="0" viewBox="0 0 32 32" style="enable-background:new 0 0 512 512" xml:space="preserve"><g><path d="M27 6H5c-.55 0-1 .45-1 1s.45 1 1 1h1.04l.79 17.23A4.988 4.988 0 0 0 11.82 30h8.36c2.68 0 4.87-2.1 4.99-4.77L25.96 8H27c.55 0 1-.45 1-1s-.45-1-1-1zm-8.29 13.29c.39.39.39 1.03 0 1.42-.2.19-.45.29-.71.29s-.51-.1-.71-.29L16 19.42l-1.29 1.29c-.2.19-.45.29-.71.29s-.51-.1-.71-.29c-.39-.39-.39-1.03 0-1.42L14.58 18l-1.29-1.29c-.39-.39-.39-1.03 0-1.42s1.03-.39 1.42 0L16 16.58l1.29-1.29c.39-.39 1.03-.39 1.42 0s.39 1.03 0 1.42L17.42 18zM13 4h6c.55 0 1-.45 1-1s-.45-1-1-1h-6c-.55 0-1 .45-1 1s.45 1 1 1z" fill="#000000" opacity="1" data-original="#000000"></path></g></svg>